<svg width="100%" height="100%" viewBox="0 0 64 64" fill="none" xmlns="http://www.w3.org/2000/svg"><path d="M15.7598 16.8733L51.4843 41.7934" stroke="#A3BEFF" stroke-width="2" stroke-linecap="round"></path><path d="M23.4708 38.2572L24.2603 38.8224L24.2619 37.8514L24.2898 20.3773V20.3765C24.2898 19.5651 24.9366 18.9429 25.6477 18.9429H25.6769L25.7058 18.9395L44.0425 16.7944H44.1563H44.1741L44.1919 16.7932C44.8921 16.7432 45.5857 17.3616 45.5857 18.1565V38.8532C45.5857 40.225 45.0669 41.4513 44.1006 42.3552L44.0943 42.3611L44.0882 42.3672C43.1852 43.2721 41.885 43.7959 40.5832 43.7959C37.8547 43.7959 35.5807 41.5815 35.5807 38.7816C35.5807 36.0446 37.7917 33.7672 40.5832 33.7672C41.7011 33.7672 42.7337 34.0893 43.5651 34.7303L44.3704 35.3512V34.3343V25.0315V24.4722L43.8146 24.5346L25.9493 26.5398L25.5051 26.5897V27.0367V42.2131C25.4368 45.0302 23.2187 47.2334 20.5025 47.2334C17.7741 47.2334 15.5 45.019 15.5 42.219C15.5 39.4362 17.6849 37.3834 20.5025 37.3834C21.6387 37.3834 22.574 37.6151 23.4708 38.2572ZM24.2898 42.2909V42.2823L24.2895 42.2737C24.2165 40.1479 22.5936 38.4956 20.5025 38.4956C18.4205 38.4956 16.7153 40.2066 16.7153 42.2909C16.7153 44.3751 18.4205 46.0861 20.5025 46.0861C22.5846 46.0861 24.2898 44.3751 24.2898 42.2909ZM40.5832 35.0579H40.0832V35.0914C38.235 35.339 36.796 36.9382 36.796 38.8525C36.796 40.9361 38.5013 42.6467 40.5832 42.6467C42.6651 42.6467 44.3704 40.9361 44.3704 38.8523C44.3704 36.7687 42.6651 35.0579 40.5832 35.0579ZM44.2989 18.4422V17.8795L43.7402 17.9457L25.8391 20.0652L25.3979 20.1175V20.5618V25.0444V25.603L25.9531 25.5413L43.8542 23.5516L43.7989 23.0547H44.2989V18.4422Z" fill="#A3BEFF" stroke="#A3BEFF"></path></svg>