<svg width="100%" height="100%" viewBox="0 0 64 64" fill="none" xmlns="http://www.w3.org/2000/svg"><path d="M14.6289 42.3859C14.6289 39.3065 17.0586 37.0502 20.1314 37.0502C21.3463 37.0502 22.3903 37.3012 23.3908 38.0175L23.4187 20.5434C23.4187 19.4691 24.2762 18.6098 25.2767 18.6098L43.6422 16.4613H43.7852C44.7856 16.3898 45.7146 17.2492 45.7146 18.3234V39.0201C45.7146 40.524 45.1429 41.8846 44.071 42.8872C43.0705 43.8898 41.6413 44.4627 40.2121 44.4627C37.2107 44.4627 34.7096 42.0277 34.7096 38.9484C34.7096 35.9406 37.1393 33.4341 40.2121 33.4341C41.4269 33.4341 42.5703 33.785 43.4993 34.5012V25.1984L25.634 27.2036V42.3859C25.5625 45.4654 23.1328 47.9002 20.1314 47.9002C17.1301 47.9002 14.6289 45.4652 14.6289 42.3859ZM20.1314 39.1625C18.3267 39.1625 16.8442 40.6485 16.8442 42.4577C16.8442 44.2669 18.3267 45.753 20.1314 45.753C21.9362 45.753 23.4187 44.2669 23.4187 42.4577C23.3543 40.584 21.9362 39.1625 20.1314 39.1625ZM40.2121 35.725C38.4073 35.725 36.9249 37.2107 36.9249 39.0194C36.9249 40.8279 38.4073 42.3135 40.2121 42.3135C42.0169 42.3135 43.4993 40.8279 43.4993 39.0192C43.4993 37.2107 42.0169 35.7248 40.2121 35.7248V35.725ZM43.4279 23.2216V18.6091L25.5268 20.7286V25.2112L43.4279 23.2216V23.2216Z" fill="#A3BEFF"></path></svg>